:SAMPLES-PER-SECOND 30
:FRAME-RANGE 1-2091
:FULLY-SPECIFIED
:DEGREES
1307
root  72.416 38.4459 -97.1748 -1.9324 53.2012 -1.81329
RightUpLeg  -15.8485 -5.46848 10.7481
RightLeg  19.6817 -14.3316 -2.85675
RightFoot  -12.3462 -0.153467 -7.99277
RightToes  5.38607e-012 1.2921e-014 -6.02303e-014
Spine  -3.149 -7.37011 -0.153868
Spine1  7.21489 -9.20849 8.51827
HEad  8.20802 -9.45398 13.6292
LeftShoulder1  1.86846 -6.00097 -13.336
LeftArm  14.4872 -36.251 -52.2657
LeftForeArm  -22.3177 -23.4509 -6.10884
LeftHand  0.185007 0.757669 -4.79594
RightShoulder  0.732488 -1.06719 26.4862
RightArm  -29.3307 -8.2935 44.4211
RightForeArm  61.0971 -5.35142 1.84438
RightHand  0.275496 -7.26826 -17.9428
LeftUpLeg  -12.4438 17.2941 3.77799
LeftLeg  61.9988 -1.28689 -2.0285
LeftFoot  4.89491 2.48556 -17.5179
LeftToes  -7.20997e-011 3.75522e-011 -2.80735e-011
1308
root  73.1956 38.4563 -97.0322 -2.04768 49.6686 -1.55005
RightUpLeg  -14.6878 -5.27685 10.6286
RightLeg  20.8943 -11.1233 -2.69548
RightFoot  -14.0536 -0.272935 -7.51124
RightToes  5.38607e-012 1.2921e-014 -6.02303e-014
Spine  -2.5822 -7.22706 -0.469683
Spine1  7.16007 -9.18474 9.42682
HEad  8.73269 -9.09138 13.5286
LeftShoulder1  1.82374 -5.85376 -13.1533
LeftArm  10.8075 -34.9952 -50.5464
LeftForeArm  -23.3459 -24.6028 -6.35103
LeftHand  0.204383 0.892415 -5.46771
RightShoulder  0.752813 -1.03406 26.9309
RightArm  -28.3291 -7.22537 44.5183
RightForeArm  61.6886 -5.41424 2.33779
RightHand  0.243244 -7.04851 -18.0351
LeftUpLeg  -15.1798 15.4951 4.75101
LeftLeg  64.7067 -1.11458 -1.91834
LeftFoot  2.63393 1.97021 -16.1167
LeftToes  -7.20997e-011 3.75522e-011 -2.80735e-011
1309
root  73.9871 38.5562 -96.8878 -1.51807 45.7512 -0.794434
RightUpLeg  -13.3998 -4.50313 9.92082
RightLeg  21.2933 -8.39178 -2.23059
RightFoot  -15.3305 -0.341546 -6.82623
RightToes  5.38607e-012 1.2921e-014 -6.02303e-014
Spine  -2.36775 -7.04362 0.060215
Spine1  6.87704 -8.78155 8.63228
HEad  9.48731 -9.23437 13.5055
LeftShoulder1  1.71711 -5.43235 -12.8658
LeftArm  6.57315 -33.2589 -48.6426
LeftForeArm  -23.165 -25.9569 -6.66222
LeftHand  0.161 1.34107 -4.89983
RightShoulder  0.785797 -0.964242 27.3829
RightArm  -27.9291 -6.81955 45.135
RightForeArm  62.301 -5.42778 2.54503
RightHand  0.207798 -6.83134 -17.8944
LeftUpLeg  -17.1733 12.2655 5.07206
LeftLeg  63.9041 -0.481418 -0.428988
LeftFoot  0.748197 1.62579 -15.3211
LeftToes  -7.20997e-011 3.75522e-011 -2.80735e-011
1310
root  74.7289 38.7157 -96.7337 -0.507446 40.8885 0.221008
RightUpLeg  -12.2762 -3.75877 8.80874
RightLeg  21.0575 -4.65192 -1.15694
RightFoot  -16.0052 -0.359075 -6.15668
RightToes  5.38607e-012 1.2921e-014 -6.02303e-014
Spine  -2.06465 -6.58925 0.741191
Spine1  6.03063 -7.9813 7.11877
HEad  10.3833 -9.54061 13.2487
LeftShoulder1  1.55901 -4.74858 -12.5392
LeftArm  1.65948 -30.377 -46.2736
LeftForeArm  -22.881 -28.5953 -7.29792
LeftHand  0.174046 1.38384 -5.3438
RightShoulder  0.822845 -0.855223 27.4181
RightArm  -27.364 -6.55854 46.2295
RightForeArm  62.2787 -5.48633 2.88934
RightHand  0.174123 -6.60024 -18.0341
LeftUpLeg  -18.2552 10.8296 5.71473
LeftLeg  60.1282 -0.0589301 0.457343
LeftFoot  -1.89282 1.17434 -14.0171
LeftToes  -7.20997e-011 3.75522e-011 -2.80735e-011
1311
root  75.475 38.8178 -96.5329 0.375992 35.8621 1.07275
RightUpLeg  -11.4542 -2.93168 7.59729
RightLeg  21.1065 -1.06628 -0.0930933
RightFoot  -16.7698 -0.392156 -5.87678
RightToes  5.38607e-012 1.2921e-014 -6.02303e-014
Spine  -2.04294 -6.11771 0.787363
Spine1  5.82086 -7.4166 6.52443
HEad  10.6233 -9.66983 12.5196
LeftShoulder1  1.41234 -3.84179 -12.9833
LeftArm  -3.67676 -26.5867 -43.3519
LeftForeArm  -24.1131 -32.7669 -8.46092
LeftHand  0.223228 1.3955 -6.81002
RightShoulder  0.849044 -0.752708 27.0941
RightArm  -26.6979 -5.9728 47.0694
RightForeArm  62.1459 -5.54954 3.23929
RightHand  0.0751145 -5.98341 -17.397
LeftUpLeg  -18.7101 7.50111 5.87309
LeftLeg  54.5436 2.28214 3.93131
LeftFoot  -4.68517 0.803943 -13.2958
LeftToes  -7.20997e-011 3.75522e-011 -2.80735e-011
1312
root  76.1683 39.0557 -96.2763 1.53679 30.7118 2.2746
RightUpLeg  -10.2966 -1.08376 5.87454
RightLeg  19.9852 2.47663 0.91968
RightFoot  -16.8999 -0.367935 -5.22316
RightToes  5.38607e-012 1.2921e-014 -6.02303e-014
Spine  -2.12624 -5.60926 -0.0588234
Spine1  5.54497 -6.89566 5.94585
HEad  10.4543 -10.0352 11.7192
LeftShoulder1  1.32289 -3.146 -13.8022
LeftArm  -8.76778 -21.7251 -39.7154
LeftForeArm  -22.6876 -38.393 -10.1085
LeftHand  0.243723 1.51285 -7.66259
RightShoulder  0.844528 -0.732848 26.643
RightArm  -26.2996 -5.54104 47.523
RightForeArm  62.6134 -5.56438 3.42627
RightHand  0.0425721 -5.78682 -16.6433
LeftUpLeg  -18.05 6.38072 5.96823
LeftLeg  45.9744 4.50606 5.38712
LeftFoot  -6.08452 0.582472 -11.863
LeftToes  -7.20997e-011 3.75522e-011 -2.80735e-011
1313
root  76.8007 39.1926 -95.9854 2.6665 25.3142 2.81708
RightUpLeg  -10.0955 2.1576 4.74385
RightLeg  19.453 4.50832 1.36092
RightFoot  -16.9724 -0.338875 -4.5559
RightToes  5.38607e-012 1.2921e-014 -6.02303e-014
Spine  -2.53483 -5.07381 -0.469837
Spine1  5.48921 -6.30351 5.26012
HEad  9.93942 -9.78319 11.2176
LeftShoulder1  1.13073 -2.08023 -14.3367
LeftArm  -12.7352 -16.38 -36.4866
LeftForeArm  -19.2303 -44.8529 -12.3208
LeftHand  0.237477 1.56978 -7.59718
RightShoulder  0.871518 -0.637293 26.4826
RightArm  -25.8725 -5.16345 47.5239
RightForeArm  62.9356 -5.5845 3.61505
RightHand  0.0353575 -5.74753 -16.2447
LeftUpLeg  -17.36 4.19399 6.46994
LeftLeg  36.581 7.1983 6.06311
LeftFoot  -6.58653 0.540474 -12.0353
LeftToes  -7.20997e-011 3.75522e-011 -2.80735e-011
